<svg width="1440" height="866" viewBox="0 0 1440 866" fill="none" xmlns="http://www.w3.org/2000/svg">
<g clip-path="url(#clip0)">
<path opacity="0.6" d="M1290 369C1402.11 369 1493 278.114 1493 166C1493 53.8862 1402.11 -37 1290 -37C1177.89 -37 1087 53.8862 1087 166C1087 278.114 1177.89 369 1290 369Z" fill="#8C30F5"/>
<path opacity="0.6" d="M913 632C959.392 632 997 594.392 997 548C997 501.608 959.392 464 913 464C866.608 464 829 501.608 829 548C829 594.392 866.608 632 913 632Z" fill="#2EC5CE"/>
<path d="M0 0H1440V572L0 752V0Z" fill="#F2F7FF" fill-opacity="0.7"/>
<path d="M1260 594.005L1680 541.488V605.488L1260 658.005V594.005Z" fill="#75E3EA"/>
<path d="M828 584.808L1440 508V572L828 648.808V584.808Z" fill="#D6B1FF"/>
<path d="M988 500.517L1408 448V512L988 564.517V500.517Z" fill="#F1E4FF"/>
<path d="M0 688.016L420 635.499V699.499L0 752.016V688.016Z" fill="#75E3EA"/>
<path d="M-152 771.005L268 718.488V782.488L-152 835.005V771.005Z" fill="#F1E4FF"/>
</g>
<defs>
<clipPath id="clip0">
<rect width="1440" height="866" fill="white"/>
</clipPath>
</defs>
</svg>
